<svg id="Knitup_logo_small" data-name="Knitup logo small" xmlns="http://www.w3.org/2000/svg" width="48" height="48" viewBox="0 0 48 48">
  <path id="circle" d="M24,0A24,24,0,1,1,0,24,24,24,0,0,1,24,0Z" fill="none"/>
  <path id="Union_33" data-name="Union 33" d="M.381,28.606A.381.381,0,0,1,0,28.226V.382A.382.382,0,0,1,.381,0H4.613A.381.381,0,0,1,4.99.382V15.49a.38.38,0,0,0,.673.24l6.008-7.162a.383.383,0,0,1,.291-.137h5.182a.38.38,0,0,1,.284.633S5.465,24.025,4.99,24.705v3.521a.381.381,0,0,1-.377.381Zm11.153-2.963c0-3.951,5.99-3.951,5.99,0a2.862,2.862,0,0,1-3,2.961A2.862,2.862,0,0,1,11.534,25.644Z" transform="translate(15.238 9.697)" stroke="rgba(0,0,0,0)" stroke-width="1"/>
</svg>
